<mxfile host="app.diagrams.net" modified="2024-03-09T16:25:43.342Z" agent="Mozilla/5.0 (Macintosh; Intel Mac OS X 10_15_7) AppleWebKit/605.1.15 (KHTML, like Gecko) Version/17.2 Safari/605.1.15" etag="VnrsvtfnZix8leP4yLqV" version="24.0.4" type="device">
  <diagram name="Page-1" id="q1nXMa5T7Mitx05jVp5D">
    <mxGraphModel dx="1035" dy="709" grid="1" gridSize="10" guides="1" tooltips="1" connect="1" arrows="1" fold="1" page="1" pageScale="1" pageWidth="827" pageHeight="1169" math="0" shadow="0">
      <root>
        <mxCell id="0" />
        <mxCell id="1" parent="0" />
        <mxCell id="CVJS5NWope7rdpDqkHdL-1" value="" style="verticalLabelPosition=bottom;verticalAlign=top;html=1;shadow=0;dashed=0;strokeWidth=1;shape=mxgraph.android.phone2;strokeColor=#c0c0c0;" vertex="1" parent="1">
          <mxGeometry x="10" y="20" width="240" height="470" as="geometry" />
        </mxCell>
        <mxCell id="CVJS5NWope7rdpDqkHdL-2" value="" style="image;html=1;image=img/lib/clip_art/people/Nurse_Woman_128x128.png" vertex="1" parent="1">
          <mxGeometry x="80" y="70" width="80" height="80" as="geometry" />
        </mxCell>
        <mxCell id="CVJS5NWope7rdpDqkHdL-3" value="XpertNurse" style="text;html=1;align=center;verticalAlign=middle;whiteSpace=wrap;rounded=0;" vertex="1" parent="1">
          <mxGeometry x="90" y="150" width="60" height="30" as="geometry" />
        </mxCell>
        <mxCell id="CVJS5NWope7rdpDqkHdL-6" value="" style="group" vertex="1" connectable="0" parent="1">
          <mxGeometry x="20" y="190" width="160" height="60" as="geometry" />
        </mxCell>
        <mxCell id="CVJS5NWope7rdpDqkHdL-4" value="Email:" style="text;html=1;align=center;verticalAlign=middle;whiteSpace=wrap;rounded=0;" vertex="1" parent="CVJS5NWope7rdpDqkHdL-6">
          <mxGeometry width="60" height="30" as="geometry" />
        </mxCell>
        <mxCell id="CVJS5NWope7rdpDqkHdL-5" value="" style="strokeWidth=1;shadow=0;dashed=0;align=center;html=1;shape=mxgraph.mockup.text.textBox;fontColor=#666666;align=left;fontSize=17;spacingLeft=4;spacingTop=-3;whiteSpace=wrap;strokeColor=#666666;mainText=" vertex="1" parent="CVJS5NWope7rdpDqkHdL-6">
          <mxGeometry x="10" y="30" width="150" height="30" as="geometry" />
        </mxCell>
        <mxCell id="CVJS5NWope7rdpDqkHdL-7" value="" style="group" vertex="1" connectable="0" parent="1">
          <mxGeometry x="20" y="260" width="160" height="60" as="geometry" />
        </mxCell>
        <mxCell id="CVJS5NWope7rdpDqkHdL-8" value="Password" style="text;html=1;align=center;verticalAlign=middle;whiteSpace=wrap;rounded=0;" vertex="1" parent="CVJS5NWope7rdpDqkHdL-7">
          <mxGeometry x="10" width="60" height="30" as="geometry" />
        </mxCell>
        <mxCell id="CVJS5NWope7rdpDqkHdL-9" value="" style="strokeWidth=1;shadow=0;dashed=0;align=center;html=1;shape=mxgraph.mockup.text.textBox;fontColor=#666666;align=left;fontSize=17;spacingLeft=4;spacingTop=-3;whiteSpace=wrap;strokeColor=#666666;mainText=" vertex="1" parent="CVJS5NWope7rdpDqkHdL-7">
          <mxGeometry x="10" y="30" width="150" height="30" as="geometry" />
        </mxCell>
        <mxCell id="CVJS5NWope7rdpDqkHdL-10" value="Login" style="rounded=1;html=1;shadow=0;dashed=0;whiteSpace=wrap;fontSize=10;fillColor=#E6E6E6;align=center;strokeColor=#B3B3B3;fontColor=#333333;" vertex="1" parent="1">
          <mxGeometry x="67.25" y="340" width="105.5" height="16.88" as="geometry" />
        </mxCell>
        <mxCell id="CVJS5NWope7rdpDqkHdL-11" value="Register" style="rounded=1;html=1;shadow=0;dashed=0;whiteSpace=wrap;fontSize=10;fillColor=#E6E6E6;align=center;strokeColor=#E6E6E6;fontColor=#333333;" vertex="1" parent="1">
          <mxGeometry x="68" y="380" width="105.5" height="16.88" as="geometry" />
        </mxCell>
        <mxCell id="CVJS5NWope7rdpDqkHdL-12" value="" style="verticalLabelPosition=bottom;verticalAlign=top;html=1;shadow=0;dashed=0;strokeWidth=1;shape=mxgraph.android.phone2;strokeColor=#c0c0c0;" vertex="1" parent="1">
          <mxGeometry x="270" y="20" width="240" height="470" as="geometry" />
        </mxCell>
        <mxCell id="CVJS5NWope7rdpDqkHdL-13" value="Registration" style="text;html=1;align=center;verticalAlign=middle;whiteSpace=wrap;rounded=0;" vertex="1" parent="1">
          <mxGeometry x="354" y="60" width="60" height="30" as="geometry" />
        </mxCell>
        <mxCell id="CVJS5NWope7rdpDqkHdL-14" value="" style="group" vertex="1" connectable="0" parent="1">
          <mxGeometry x="280" y="90" width="160" height="60" as="geometry" />
        </mxCell>
        <mxCell id="CVJS5NWope7rdpDqkHdL-15" value="Name:" style="text;html=1;align=center;verticalAlign=middle;whiteSpace=wrap;rounded=0;" vertex="1" parent="CVJS5NWope7rdpDqkHdL-14">
          <mxGeometry width="60" height="30" as="geometry" />
        </mxCell>
        <mxCell id="CVJS5NWope7rdpDqkHdL-16" value="" style="strokeWidth=1;shadow=0;dashed=0;align=center;html=1;shape=mxgraph.mockup.text.textBox;fontColor=#666666;align=left;fontSize=17;spacingLeft=4;spacingTop=-3;whiteSpace=wrap;strokeColor=#666666;mainText=" vertex="1" parent="CVJS5NWope7rdpDqkHdL-14">
          <mxGeometry x="10" y="30" width="150" height="30" as="geometry" />
        </mxCell>
        <mxCell id="CVJS5NWope7rdpDqkHdL-17" value="" style="group" vertex="1" connectable="0" parent="1">
          <mxGeometry x="280" y="210" width="160" height="60" as="geometry" />
        </mxCell>
        <mxCell id="CVJS5NWope7rdpDqkHdL-18" value="Email:" style="text;html=1;align=center;verticalAlign=middle;whiteSpace=wrap;rounded=0;" vertex="1" parent="CVJS5NWope7rdpDqkHdL-17">
          <mxGeometry width="60" height="30" as="geometry" />
        </mxCell>
        <mxCell id="CVJS5NWope7rdpDqkHdL-19" value="" style="strokeWidth=1;shadow=0;dashed=0;align=center;html=1;shape=mxgraph.mockup.text.textBox;fontColor=#666666;align=left;fontSize=17;spacingLeft=4;spacingTop=-3;whiteSpace=wrap;strokeColor=#666666;mainText=" vertex="1" parent="CVJS5NWope7rdpDqkHdL-17">
          <mxGeometry x="10" y="30" width="150" height="30" as="geometry" />
        </mxCell>
        <mxCell id="CVJS5NWope7rdpDqkHdL-20" value="" style="group" vertex="1" connectable="0" parent="1">
          <mxGeometry x="280" y="150" width="160" height="60" as="geometry" />
        </mxCell>
        <mxCell id="CVJS5NWope7rdpDqkHdL-21" value="Phone:" style="text;html=1;align=center;verticalAlign=middle;whiteSpace=wrap;rounded=0;" vertex="1" parent="CVJS5NWope7rdpDqkHdL-20">
          <mxGeometry width="60" height="30" as="geometry" />
        </mxCell>
        <mxCell id="CVJS5NWope7rdpDqkHdL-22" value="" style="strokeWidth=1;shadow=0;dashed=0;align=center;html=1;shape=mxgraph.mockup.text.textBox;fontColor=#666666;align=left;fontSize=17;spacingLeft=4;spacingTop=-3;whiteSpace=wrap;strokeColor=#666666;mainText=" vertex="1" parent="CVJS5NWope7rdpDqkHdL-20">
          <mxGeometry x="10" y="30" width="150" height="30" as="geometry" />
        </mxCell>
        <mxCell id="CVJS5NWope7rdpDqkHdL-23" value="" style="group" vertex="1" connectable="0" parent="1">
          <mxGeometry x="280" y="280" width="160" height="60" as="geometry" />
        </mxCell>
        <mxCell id="CVJS5NWope7rdpDqkHdL-24" value="Password" style="text;html=1;align=center;verticalAlign=middle;whiteSpace=wrap;rounded=0;" vertex="1" parent="CVJS5NWope7rdpDqkHdL-23">
          <mxGeometry x="10" width="60" height="30" as="geometry" />
        </mxCell>
        <mxCell id="CVJS5NWope7rdpDqkHdL-25" value="" style="strokeWidth=1;shadow=0;dashed=0;align=center;html=1;shape=mxgraph.mockup.text.textBox;fontColor=#666666;align=left;fontSize=17;spacingLeft=4;spacingTop=-3;whiteSpace=wrap;strokeColor=#666666;mainText=" vertex="1" parent="CVJS5NWope7rdpDqkHdL-23">
          <mxGeometry x="10" y="30" width="150" height="30" as="geometry" />
        </mxCell>
        <mxCell id="CVJS5NWope7rdpDqkHdL-26" value="" style="group" vertex="1" connectable="0" parent="1">
          <mxGeometry x="280" y="340" width="160" height="60" as="geometry" />
        </mxCell>
        <mxCell id="CVJS5NWope7rdpDqkHdL-27" value="Confirm Password" style="text;html=1;align=center;verticalAlign=middle;whiteSpace=wrap;rounded=0;" vertex="1" parent="CVJS5NWope7rdpDqkHdL-26">
          <mxGeometry x="10" width="110" height="30" as="geometry" />
        </mxCell>
        <mxCell id="CVJS5NWope7rdpDqkHdL-28" value="" style="strokeWidth=1;shadow=0;dashed=0;align=center;html=1;shape=mxgraph.mockup.text.textBox;fontColor=#666666;align=left;fontSize=17;spacingLeft=4;spacingTop=-3;whiteSpace=wrap;strokeColor=#666666;mainText=" vertex="1" parent="CVJS5NWope7rdpDqkHdL-26">
          <mxGeometry x="10" y="30" width="150" height="30" as="geometry" />
        </mxCell>
        <mxCell id="CVJS5NWope7rdpDqkHdL-29" value="Register" style="rounded=1;html=1;shadow=0;dashed=0;whiteSpace=wrap;fontSize=10;fillColor=#E6E6E6;align=center;strokeColor=#E6E6E6;fontColor=#333333;" vertex="1" parent="1">
          <mxGeometry x="320" y="410" width="105.5" height="16.88" as="geometry" />
        </mxCell>
        <mxCell id="CVJS5NWope7rdpDqkHdL-30" value="" style="verticalLabelPosition=bottom;verticalAlign=top;html=1;shadow=0;dashed=0;strokeWidth=1;shape=mxgraph.android.phone2;strokeColor=#c0c0c0;" vertex="1" parent="1">
          <mxGeometry x="550" y="10" width="220" height="470" as="geometry" />
        </mxCell>
        <mxCell id="CVJS5NWope7rdpDqkHdL-31" value="" style="strokeWidth=1;html=1;shadow=0;dashed=0;shape=mxgraph.android.rrect;rSize=0;fillColor=#444444;strokeColor=none;" vertex="1" parent="1">
          <mxGeometry x="560" y="400" width="200" height="40" as="geometry" />
        </mxCell>
        <mxCell id="CVJS5NWope7rdpDqkHdL-32" value="Home" style="strokeWidth=1;html=1;shadow=0;dashed=0;shape=mxgraph.android.anchor;fontStyle=1;fontColor=#ffffff;" vertex="1" parent="CVJS5NWope7rdpDqkHdL-31">
          <mxGeometry width="50" height="40" as="geometry" />
        </mxCell>
        <mxCell id="CVJS5NWope7rdpDqkHdL-33" value="Patients" style="strokeWidth=1;html=1;shadow=0;dashed=0;shape=mxgraph.android.rrect;rSize=0;fontStyle=1;fillColor=#0099cc;strokeColor=none;fontColor=#ffffff;" vertex="1" parent="CVJS5NWope7rdpDqkHdL-31">
          <mxGeometry x="50" width="50" height="40" as="geometry" />
        </mxCell>
        <mxCell id="CVJS5NWope7rdpDqkHdL-34" value="" style="strokeWidth=1;html=1;shadow=0;dashed=0;shape=mxgraph.android.rrect;rSize=0;fillColor=#33b5e5;strokeColor=none;" vertex="1" parent="CVJS5NWope7rdpDqkHdL-33">
          <mxGeometry y="36" width="50" height="4" as="geometry" />
        </mxCell>
        <mxCell id="CVJS5NWope7rdpDqkHdL-35" value="Vitals" style="strokeWidth=1;html=1;shadow=0;dashed=0;shape=mxgraph.android.anchor;fontStyle=1;fontColor=#ffffff;" vertex="1" parent="CVJS5NWope7rdpDqkHdL-31">
          <mxGeometry x="100" width="50" height="40" as="geometry" />
        </mxCell>
        <mxCell id="CVJS5NWope7rdpDqkHdL-36" value="Profile" style="strokeWidth=1;html=1;shadow=0;dashed=0;shape=mxgraph.android.anchor;fontStyle=1;fontColor=#ffffff;" vertex="1" parent="CVJS5NWope7rdpDqkHdL-31">
          <mxGeometry x="150" width="50" height="40" as="geometry" />
        </mxCell>
        <mxCell id="CVJS5NWope7rdpDqkHdL-37" value="" style="shape=line;strokeColor=#ffffff;direction=south;" vertex="1" parent="CVJS5NWope7rdpDqkHdL-31">
          <mxGeometry x="142.16216216216216" y="6.666666666666666" width="10.810810810810812" height="26.666666666666664" as="geometry" />
        </mxCell>
        <mxCell id="CVJS5NWope7rdpDqkHdL-38" value="" style="html=1;shadow=0;dashed=0;shape=mxgraph.bootstrap.rrect;rSize=5;strokeColor=#DFDFDF;html=1;whiteSpace=wrap;fillColor=#FFFFFF;fontColor=#000000;" vertex="1" parent="1">
          <mxGeometry x="560" y="100" width="200" height="150" as="geometry" />
        </mxCell>
        <mxCell id="CVJS5NWope7rdpDqkHdL-39" value="Sami" style="html=1;shadow=0;dashed=0;shape=mxgraph.bootstrap.topButton;rSize=5;strokeColor=inherit;fillColor=#ffffff;fontColor=#6C767D;perimeter=none;whiteSpace=wrap;resizeWidth=1;align=left;spacing=10;" vertex="1" parent="CVJS5NWope7rdpDqkHdL-38">
          <mxGeometry width="200" height="30" relative="1" as="geometry" />
        </mxCell>
        <mxCell id="CVJS5NWope7rdpDqkHdL-40" value="Ibrahim" style="strokeColor=inherit;fillColor=inherit;gradientColor=inherit;fontColor=inherit;html=1;shadow=0;dashed=0;perimeter=none;whiteSpace=wrap;resizeWidth=1;align=left;spacing=10;" vertex="1" parent="CVJS5NWope7rdpDqkHdL-38">
          <mxGeometry width="200" height="30" relative="1" as="geometry">
            <mxPoint y="30" as="offset" />
          </mxGeometry>
        </mxCell>
        <mxCell id="CVJS5NWope7rdpDqkHdL-41" value="Zack" style="strokeColor=inherit;fillColor=inherit;gradientColor=inherit;fontColor=inherit;html=1;shadow=0;dashed=0;perimeter=none;whiteSpace=wrap;resizeWidth=1;align=left;spacing=10;" vertex="1" parent="CVJS5NWope7rdpDqkHdL-38">
          <mxGeometry width="200" height="30" relative="1" as="geometry">
            <mxPoint y="60" as="offset" />
          </mxGeometry>
        </mxCell>
        <mxCell id="CVJS5NWope7rdpDqkHdL-42" value="Porta ac consectetur ac" style="strokeColor=inherit;fillColor=inherit;gradientColor=inherit;fontColor=inherit;html=1;shadow=0;dashed=0;perimeter=none;whiteSpace=wrap;resizeWidth=1;align=left;spacing=10;" vertex="1" parent="CVJS5NWope7rdpDqkHdL-38">
          <mxGeometry width="200" height="30" relative="1" as="geometry">
            <mxPoint y="90" as="offset" />
          </mxGeometry>
        </mxCell>
        <mxCell id="CVJS5NWope7rdpDqkHdL-43" value="Vestibulum at eros" style="strokeColor=inherit;fillColor=inherit;gradientColor=inherit;fontColor=inherit;html=1;shadow=0;dashed=0;shape=mxgraph.bootstrap.bottomButton;rSize=5;perimeter=none;whiteSpace=wrap;resizeWidth=1;resizeHeight=0;align=left;spacing=10;" vertex="1" parent="CVJS5NWope7rdpDqkHdL-38">
          <mxGeometry y="1" width="200" height="30" relative="1" as="geometry">
            <mxPoint y="-30" as="offset" />
          </mxGeometry>
        </mxCell>
        <mxCell id="CVJS5NWope7rdpDqkHdL-44" value="" style="html=1;shadow=0;dashed=0;shape=mxgraph.bootstrap.rrect;rSize=5;strokeColor=#DFDFDF;html=1;whiteSpace=wrap;fillColor=#FFFFFF;fontColor=#000000;" vertex="1" parent="1">
          <mxGeometry x="560" y="250" width="200" height="150" as="geometry" />
        </mxCell>
        <mxCell id="CVJS5NWope7rdpDqkHdL-45" value="Cras justo odio" style="html=1;shadow=0;dashed=0;shape=mxgraph.bootstrap.topButton;rSize=5;strokeColor=inherit;fillColor=#ffffff;fontColor=#6C767D;perimeter=none;whiteSpace=wrap;resizeWidth=1;align=left;spacing=10;" vertex="1" parent="CVJS5NWope7rdpDqkHdL-44">
          <mxGeometry width="200" height="30" relative="1" as="geometry" />
        </mxCell>
        <mxCell id="CVJS5NWope7rdpDqkHdL-46" value="Dapibus ac facilisis in" style="strokeColor=inherit;fillColor=inherit;gradientColor=inherit;fontColor=inherit;html=1;shadow=0;dashed=0;perimeter=none;whiteSpace=wrap;resizeWidth=1;align=left;spacing=10;" vertex="1" parent="CVJS5NWope7rdpDqkHdL-44">
          <mxGeometry width="200" height="30" relative="1" as="geometry">
            <mxPoint y="30" as="offset" />
          </mxGeometry>
        </mxCell>
        <mxCell id="CVJS5NWope7rdpDqkHdL-47" value="Morbi leo risus" style="strokeColor=inherit;fillColor=inherit;gradientColor=inherit;fontColor=inherit;html=1;shadow=0;dashed=0;perimeter=none;whiteSpace=wrap;resizeWidth=1;align=left;spacing=10;" vertex="1" parent="CVJS5NWope7rdpDqkHdL-44">
          <mxGeometry width="200" height="30" relative="1" as="geometry">
            <mxPoint y="60" as="offset" />
          </mxGeometry>
        </mxCell>
        <mxCell id="CVJS5NWope7rdpDqkHdL-48" value="Porta ac consectetur ac" style="strokeColor=inherit;fillColor=inherit;gradientColor=inherit;fontColor=inherit;html=1;shadow=0;dashed=0;perimeter=none;whiteSpace=wrap;resizeWidth=1;align=left;spacing=10;" vertex="1" parent="CVJS5NWope7rdpDqkHdL-44">
          <mxGeometry width="200" height="30" relative="1" as="geometry">
            <mxPoint y="90" as="offset" />
          </mxGeometry>
        </mxCell>
        <mxCell id="CVJS5NWope7rdpDqkHdL-49" value="Vestibulum at eros" style="strokeColor=inherit;fillColor=inherit;gradientColor=inherit;fontColor=inherit;html=1;shadow=0;dashed=0;shape=mxgraph.bootstrap.bottomButton;rSize=5;perimeter=none;whiteSpace=wrap;resizeWidth=1;resizeHeight=0;align=left;spacing=10;" vertex="1" parent="CVJS5NWope7rdpDqkHdL-44">
          <mxGeometry y="1" width="200" height="30" relative="1" as="geometry">
            <mxPoint y="-30" as="offset" />
          </mxGeometry>
        </mxCell>
        <mxCell id="CVJS5NWope7rdpDqkHdL-50" value="Patients" style="text;html=1;align=center;verticalAlign=middle;whiteSpace=wrap;rounded=0;" vertex="1" parent="1">
          <mxGeometry x="630" y="60" width="60" height="30" as="geometry" />
        </mxCell>
        <mxCell id="CVJS5NWope7rdpDqkHdL-51" value="" style="verticalLabelPosition=bottom;verticalAlign=top;html=1;shadow=0;dashed=0;strokeWidth=1;shape=mxgraph.android.phone2;strokeColor=#c0c0c0;" vertex="1" parent="1">
          <mxGeometry x="10.75" y="510" width="220" height="470" as="geometry" />
        </mxCell>
        <mxCell id="CVJS5NWope7rdpDqkHdL-52" value="" style="strokeWidth=1;html=1;shadow=0;dashed=0;shape=mxgraph.android.rrect;rSize=0;fillColor=#444444;strokeColor=none;" vertex="1" parent="1">
          <mxGeometry x="20" y="900" width="200" height="40" as="geometry" />
        </mxCell>
        <mxCell id="CVJS5NWope7rdpDqkHdL-53" value="Home" style="strokeWidth=1;html=1;shadow=0;dashed=0;shape=mxgraph.android.anchor;fontStyle=1;fontColor=#ffffff;" vertex="1" parent="CVJS5NWope7rdpDqkHdL-52">
          <mxGeometry width="50" height="40" as="geometry" />
        </mxCell>
        <mxCell id="CVJS5NWope7rdpDqkHdL-54" value="Patients" style="strokeWidth=1;html=1;shadow=0;dashed=0;shape=mxgraph.android.rrect;rSize=0;fontStyle=1;fillColor=#333333;strokeColor=none;fontColor=#ffffff;" vertex="1" parent="CVJS5NWope7rdpDqkHdL-52">
          <mxGeometry x="50" width="50" height="40" as="geometry" />
        </mxCell>
        <mxCell id="CVJS5NWope7rdpDqkHdL-55" value="" style="strokeWidth=1;html=1;shadow=0;dashed=0;shape=mxgraph.android.rrect;rSize=0;fillColor=#33b5e5;strokeColor=none;" vertex="1" parent="CVJS5NWope7rdpDqkHdL-54">
          <mxGeometry y="36" width="50" height="4" as="geometry" />
        </mxCell>
        <mxCell id="CVJS5NWope7rdpDqkHdL-56" value="Vitals" style="strokeWidth=1;html=1;shadow=0;dashed=0;shape=mxgraph.android.anchor;fontStyle=1;fontColor=#ffffff;fillColor=#00c7fc;gradientColor=#00c7fc;labelBackgroundColor=#00c7fc;" vertex="1" parent="CVJS5NWope7rdpDqkHdL-52">
          <mxGeometry x="100" width="50" height="40" as="geometry" />
        </mxCell>
        <mxCell id="CVJS5NWope7rdpDqkHdL-57" value="Profile" style="strokeWidth=1;html=1;shadow=0;dashed=0;shape=mxgraph.android.anchor;fontStyle=1;fontColor=#ffffff;" vertex="1" parent="CVJS5NWope7rdpDqkHdL-52">
          <mxGeometry x="150" width="50" height="40" as="geometry" />
        </mxCell>
        <mxCell id="CVJS5NWope7rdpDqkHdL-58" value="" style="shape=line;strokeColor=#ffffff;direction=south;" vertex="1" parent="CVJS5NWope7rdpDqkHdL-52">
          <mxGeometry x="142.16216216216216" y="6.666666666666666" width="10.810810810810812" height="26.666666666666664" as="geometry" />
        </mxCell>
        <mxCell id="CVJS5NWope7rdpDqkHdL-59" value="Vitals" style="text;html=1;align=center;verticalAlign=middle;whiteSpace=wrap;rounded=0;" vertex="1" parent="1">
          <mxGeometry x="90" y="560" width="60" height="30" as="geometry" />
        </mxCell>
        <mxCell id="CVJS5NWope7rdpDqkHdL-60" value="" style="html=1;shadow=0;dashed=0;shape=mxgraph.bootstrap.rrect;rSize=5;strokeColor=#DFDFDF;html=1;whiteSpace=wrap;fillColor=#FFFFFF;fontColor=#000000;" vertex="1" parent="1">
          <mxGeometry x="20" y="640" width="200" height="150" as="geometry" />
        </mxCell>
        <mxCell id="CVJS5NWope7rdpDqkHdL-61" value="Temperature: 36.5" style="html=1;shadow=0;dashed=0;shape=mxgraph.bootstrap.topButton;rSize=5;strokeColor=inherit;fillColor=#ffffff;fontColor=#6C767D;perimeter=none;whiteSpace=wrap;resizeWidth=1;align=left;spacing=10;" vertex="1" parent="CVJS5NWope7rdpDqkHdL-60">
          <mxGeometry width="200" height="30" relative="1" as="geometry" />
        </mxCell>
        <mxCell id="CVJS5NWope7rdpDqkHdL-62" value="Glucose: 81" style="strokeColor=inherit;fillColor=inherit;gradientColor=inherit;fontColor=inherit;html=1;shadow=0;dashed=0;perimeter=none;whiteSpace=wrap;resizeWidth=1;align=left;spacing=10;" vertex="1" parent="CVJS5NWope7rdpDqkHdL-60">
          <mxGeometry width="200" height="30" relative="1" as="geometry">
            <mxPoint y="30" as="offset" />
          </mxGeometry>
        </mxCell>
        <mxCell id="CVJS5NWope7rdpDqkHdL-63" value="Blood Pressure: 12/8" style="strokeColor=inherit;fillColor=inherit;gradientColor=inherit;fontColor=inherit;html=1;shadow=0;dashed=0;perimeter=none;whiteSpace=wrap;resizeWidth=1;align=left;spacing=10;" vertex="1" parent="CVJS5NWope7rdpDqkHdL-60">
          <mxGeometry width="200" height="30" relative="1" as="geometry">
            <mxPoint y="60" as="offset" />
          </mxGeometry>
        </mxCell>
        <mxCell id="CVJS5NWope7rdpDqkHdL-64" value="Heart Beats: 61" style="strokeColor=inherit;fillColor=inherit;gradientColor=inherit;fontColor=inherit;html=1;shadow=0;dashed=0;perimeter=none;whiteSpace=wrap;resizeWidth=1;align=left;spacing=10;" vertex="1" parent="CVJS5NWope7rdpDqkHdL-60">
          <mxGeometry width="200" height="30" relative="1" as="geometry">
            <mxPoint y="90" as="offset" />
          </mxGeometry>
        </mxCell>
        <mxCell id="CVJS5NWope7rdpDqkHdL-65" value="Oxygene Level: 99" style="strokeColor=inherit;fillColor=inherit;gradientColor=inherit;fontColor=inherit;html=1;shadow=0;dashed=0;shape=mxgraph.bootstrap.bottomButton;rSize=5;perimeter=none;whiteSpace=wrap;resizeWidth=1;resizeHeight=0;align=left;spacing=10;" vertex="1" parent="CVJS5NWope7rdpDqkHdL-60">
          <mxGeometry y="1" width="200" height="30" relative="1" as="geometry">
            <mxPoint y="-30" as="offset" />
          </mxGeometry>
        </mxCell>
        <mxCell id="CVJS5NWope7rdpDqkHdL-66" value="Recent Vitals" style="text;html=1;align=center;verticalAlign=middle;whiteSpace=wrap;rounded=0;" vertex="1" parent="1">
          <mxGeometry x="20" y="610" width="90" height="30" as="geometry" />
        </mxCell>
        <mxCell id="CVJS5NWope7rdpDqkHdL-67" value="" style="html=1;shadow=0;dashed=0;shape=mxgraph.bootstrap.rrect;rSize=5;strokeColor=#DFDFDF;html=1;whiteSpace=wrap;fillColor=#FFFFFF;fontColor=#000000;" vertex="1" parent="1">
          <mxGeometry x="20" y="790" width="200" height="120" as="geometry" />
        </mxCell>
        <mxCell id="CVJS5NWope7rdpDqkHdL-68" value="Temperature: 36.5" style="html=1;shadow=0;dashed=0;shape=mxgraph.bootstrap.topButton;rSize=5;strokeColor=inherit;fillColor=#ffffff;fontColor=#6C767D;perimeter=none;whiteSpace=wrap;resizeWidth=1;align=left;spacing=10;" vertex="1" parent="CVJS5NWope7rdpDqkHdL-67">
          <mxGeometry width="200" height="30" relative="1" as="geometry" />
        </mxCell>
        <mxCell id="CVJS5NWope7rdpDqkHdL-69" value="Glucose: 81" style="strokeColor=inherit;fillColor=inherit;gradientColor=inherit;fontColor=inherit;html=1;shadow=0;dashed=0;perimeter=none;whiteSpace=wrap;resizeWidth=1;align=left;spacing=10;" vertex="1" parent="CVJS5NWope7rdpDqkHdL-67">
          <mxGeometry width="200" height="30" relative="1" as="geometry">
            <mxPoint y="30" as="offset" />
          </mxGeometry>
        </mxCell>
        <mxCell id="CVJS5NWope7rdpDqkHdL-70" value="Blood Pressure: 12/8" style="strokeColor=inherit;fillColor=inherit;gradientColor=inherit;fontColor=inherit;html=1;shadow=0;dashed=0;perimeter=none;whiteSpace=wrap;resizeWidth=1;align=left;spacing=10;" vertex="1" parent="CVJS5NWope7rdpDqkHdL-67">
          <mxGeometry width="200" height="30" relative="1" as="geometry">
            <mxPoint y="60" as="offset" />
          </mxGeometry>
        </mxCell>
        <mxCell id="CVJS5NWope7rdpDqkHdL-71" value="Heart Beats: 61" style="strokeColor=inherit;fillColor=inherit;gradientColor=inherit;fontColor=inherit;html=1;shadow=0;dashed=0;perimeter=none;whiteSpace=wrap;resizeWidth=1;align=left;spacing=10;" vertex="1" parent="CVJS5NWope7rdpDqkHdL-67">
          <mxGeometry width="200" height="30" relative="1" as="geometry">
            <mxPoint y="90" as="offset" />
          </mxGeometry>
        </mxCell>
        <mxCell id="CVJS5NWope7rdpDqkHdL-72" value="Oxygene Level: 99" style="strokeColor=inherit;fillColor=inherit;gradientColor=inherit;fontColor=inherit;html=1;shadow=0;dashed=0;shape=mxgraph.bootstrap.bottomButton;rSize=5;perimeter=none;whiteSpace=wrap;resizeWidth=1;resizeHeight=0;align=left;spacing=10;" vertex="1" parent="CVJS5NWope7rdpDqkHdL-67">
          <mxGeometry y="1" width="200" height="30" relative="1" as="geometry">
            <mxPoint y="-30" as="offset" />
          </mxGeometry>
        </mxCell>
        <mxCell id="CVJS5NWope7rdpDqkHdL-73" value="+ Add New&amp;nbsp;" style="rounded=1;html=1;shadow=0;dashed=0;whiteSpace=wrap;fontSize=10;fillColor=#E6E6E6;align=center;strokeColor=#E6E6E6;fontColor=#333333;" vertex="1" parent="1">
          <mxGeometry x="114.5" y="593.12" width="105.5" height="16.88" as="geometry" />
        </mxCell>
        <mxCell id="CVJS5NWope7rdpDqkHdL-74" value="" style="verticalLabelPosition=bottom;verticalAlign=top;html=1;shadow=0;dashed=0;strokeWidth=1;shape=mxgraph.android.phone2;strokeColor=#c0c0c0;" vertex="1" parent="1">
          <mxGeometry x="262.75" y="510" width="220" height="520" as="geometry" />
        </mxCell>
        <mxCell id="CVJS5NWope7rdpDqkHdL-75" value="" style="group" vertex="1" connectable="0" parent="1">
          <mxGeometry x="280" y="560" width="160" height="60" as="geometry" />
        </mxCell>
        <mxCell id="CVJS5NWope7rdpDqkHdL-76" value="Patient" style="text;html=1;align=center;verticalAlign=middle;whiteSpace=wrap;rounded=0;" vertex="1" parent="CVJS5NWope7rdpDqkHdL-75">
          <mxGeometry width="60" height="30" as="geometry" />
        </mxCell>
        <mxCell id="CVJS5NWope7rdpDqkHdL-77" value="" style="strokeWidth=1;shadow=0;dashed=0;align=center;html=1;shape=mxgraph.mockup.text.textBox;fontColor=#666666;align=left;fontSize=17;spacingLeft=4;spacingTop=-3;whiteSpace=wrap;strokeColor=#666666;mainText=" vertex="1" parent="CVJS5NWope7rdpDqkHdL-75">
          <mxGeometry x="10" y="30" width="150" height="30" as="geometry" />
        </mxCell>
        <mxCell id="CVJS5NWope7rdpDqkHdL-78" value="" style="group" vertex="1" connectable="0" parent="1">
          <mxGeometry x="280" y="620" width="160" height="60" as="geometry" />
        </mxCell>
        <mxCell id="CVJS5NWope7rdpDqkHdL-79" value="Temperature" style="text;html=1;align=center;verticalAlign=middle;whiteSpace=wrap;rounded=0;" vertex="1" parent="CVJS5NWope7rdpDqkHdL-78">
          <mxGeometry x="10" width="60" height="30" as="geometry" />
        </mxCell>
        <mxCell id="CVJS5NWope7rdpDqkHdL-80" value="" style="strokeWidth=1;shadow=0;dashed=0;align=center;html=1;shape=mxgraph.mockup.text.textBox;fontColor=#666666;align=left;fontSize=17;spacingLeft=4;spacingTop=-3;whiteSpace=wrap;strokeColor=#666666;mainText=" vertex="1" parent="CVJS5NWope7rdpDqkHdL-78">
          <mxGeometry x="10" y="30" width="150" height="30" as="geometry" />
        </mxCell>
        <mxCell id="CVJS5NWope7rdpDqkHdL-81" value="" style="group" vertex="1" connectable="0" parent="1">
          <mxGeometry x="280" y="680" width="160" height="60" as="geometry" />
        </mxCell>
        <mxCell id="CVJS5NWope7rdpDqkHdL-82" value="Glucose" style="text;html=1;align=center;verticalAlign=middle;whiteSpace=wrap;rounded=0;" vertex="1" parent="CVJS5NWope7rdpDqkHdL-81">
          <mxGeometry width="60" height="30" as="geometry" />
        </mxCell>
        <mxCell id="CVJS5NWope7rdpDqkHdL-83" value="" style="strokeWidth=1;shadow=0;dashed=0;align=center;html=1;shape=mxgraph.mockup.text.textBox;fontColor=#666666;align=left;fontSize=17;spacingLeft=4;spacingTop=-3;whiteSpace=wrap;strokeColor=#666666;mainText=" vertex="1" parent="CVJS5NWope7rdpDqkHdL-81">
          <mxGeometry x="10" y="30" width="150" height="30" as="geometry" />
        </mxCell>
        <mxCell id="CVJS5NWope7rdpDqkHdL-84" value="" style="group" vertex="1" connectable="0" parent="1">
          <mxGeometry x="290" y="740" width="160" height="60" as="geometry" />
        </mxCell>
        <mxCell id="CVJS5NWope7rdpDqkHdL-85" value="Bood Pressure" style="text;html=1;align=center;verticalAlign=middle;whiteSpace=wrap;rounded=0;" vertex="1" parent="CVJS5NWope7rdpDqkHdL-84">
          <mxGeometry x="-10" width="110" height="30" as="geometry" />
        </mxCell>
        <mxCell id="CVJS5NWope7rdpDqkHdL-86" value="" style="strokeWidth=1;shadow=0;dashed=0;align=center;html=1;shape=mxgraph.mockup.text.textBox;fontColor=#666666;align=left;fontSize=17;spacingLeft=4;spacingTop=-3;whiteSpace=wrap;strokeColor=#666666;mainText=" vertex="1" parent="CVJS5NWope7rdpDqkHdL-84">
          <mxGeometry y="30" width="150" height="30" as="geometry" />
        </mxCell>
        <mxCell id="CVJS5NWope7rdpDqkHdL-87" value="" style="group" vertex="1" connectable="0" parent="1">
          <mxGeometry x="290" y="800" width="160" height="60" as="geometry" />
        </mxCell>
        <mxCell id="CVJS5NWope7rdpDqkHdL-88" value="Oxygene Level" style="text;html=1;align=center;verticalAlign=middle;whiteSpace=wrap;rounded=0;" vertex="1" parent="CVJS5NWope7rdpDqkHdL-87">
          <mxGeometry width="90" height="30" as="geometry" />
        </mxCell>
        <mxCell id="CVJS5NWope7rdpDqkHdL-89" value="" style="strokeWidth=1;shadow=0;dashed=0;align=center;html=1;shape=mxgraph.mockup.text.textBox;fontColor=#666666;align=left;fontSize=17;spacingLeft=4;spacingTop=-3;whiteSpace=wrap;strokeColor=#666666;mainText=" vertex="1" parent="CVJS5NWope7rdpDqkHdL-87">
          <mxGeometry y="30" width="150" height="30" as="geometry" />
        </mxCell>
        <mxCell id="CVJS5NWope7rdpDqkHdL-91" value="" style="group" vertex="1" connectable="0" parent="1">
          <mxGeometry x="290" y="860" width="160" height="60" as="geometry" />
        </mxCell>
        <mxCell id="CVJS5NWope7rdpDqkHdL-92" value="Heat Heats" style="text;html=1;align=center;verticalAlign=middle;whiteSpace=wrap;rounded=0;" vertex="1" parent="CVJS5NWope7rdpDqkHdL-91">
          <mxGeometry width="90" height="30" as="geometry" />
        </mxCell>
        <mxCell id="CVJS5NWope7rdpDqkHdL-93" value="" style="strokeWidth=1;shadow=0;dashed=0;align=center;html=1;shape=mxgraph.mockup.text.textBox;fontColor=#666666;align=left;fontSize=17;spacingLeft=4;spacingTop=-3;whiteSpace=wrap;strokeColor=#666666;mainText=" vertex="1" parent="CVJS5NWope7rdpDqkHdL-91">
          <mxGeometry y="30" width="150" height="30" as="geometry" />
        </mxCell>
        <mxCell id="CVJS5NWope7rdpDqkHdL-94" value="Create" style="rounded=1;html=1;shadow=0;dashed=0;whiteSpace=wrap;fontSize=10;fillColor=#E6E6E6;align=center;strokeColor=#E6E6E6;fontColor=#333333;" vertex="1" parent="1">
          <mxGeometry x="317.25" y="940" width="105.5" height="16.88" as="geometry" />
        </mxCell>
      </root>
    </mxGraphModel>
  </diagram>
</mxfile>
